<svg xmlns="http://www.w3.org/2000/svg" width="32" height="30" viewBox="0 0 32 30">
  <g id="ai1" transform="translate(-8 -46.368)">
    <path id="Path_3077" data-name="Path 3077" d="M168.529,316.271h-4.158A.273.273,0,0,1,164.1,316v-1.012a.273.273,0,0,0-.273-.273h-5.819a.273.273,0,0,0-.273.273V316a.273.273,0,0,1-.273.273h-3.126a.273.273,0,0,0-.273.273v1.171a.273.273,0,0,0,.273.273h14.194a.273.273,0,0,0,.273-.273v-1.171A.273.273,0,0,0,168.529,316.271Z" transform="translate(-132.194 -241.752)" fill="#fff"/>
    <g id="Group_1487" data-name="Group 1487" transform="translate(8 46.368)">
      <path id="Path_3078" data-name="Path 3078" d="M80.945,46.368H53.012a1.866,1.866,0,0,0-1.854,1.873v4.884c0,.646-.047.737.382.737h.736c.36,0,.286-.091.286-.749V48.241a.459.459,0,0,1,.451-.455H80.945a.459.459,0,0,1,.451.455V66.522H65.536s-.738,0-.738.963v2.287c0,.963.762.963.762.963H80.945A1.866,1.866,0,0,0,82.8,68.862V48.241A1.866,1.866,0,0,0,80.945,46.368Zm-9.6,22.749a.844.844,0,1,1,.835-.844A.84.84,0,0,1,71.343,69.117Z" transform="translate(-50.8 -46.368)" fill="#fff"/>
      <path id="Path_3079" data-name="Path 3079" d="M11.214,141.633H1.208A1.21,1.21,0,0,0,0,142.841v17.644a1.21,1.21,0,0,0,1.208,1.209H11.214a1.21,1.21,0,0,0,1.208-1.209V142.841A1.21,1.21,0,0,0,11.214,141.633Zm-6.692,1.233H7.171a.229.229,0,0,1,0,.458H4.523a.229.229,0,0,1,0-.458Zm1.308,17.979a.625.625,0,1,1,.625-.625A.625.625,0,0,1,5.831,160.845Zm5.554-1.838a.291.291,0,0,1-.287.293H1.325a.291.291,0,0,1-.287-.293V144.346a.291.291,0,0,1,.287-.293H11.1a.291.291,0,0,1,.287.293Z" transform="translate(0 -131.694)" fill="#fff"/>
    </g>
  </g>
</svg>
