<svg xmlns="http://www.w3.org/2000/svg" width="30" height="30" viewBox="0 0 30 30">
  <g id="ai2" transform="translate(-1 -1)">
    <path id="Path_3080" data-name="Path 3080" d="M31.263,23H23.486a.486.486,0,0,0-.486.486v7.777a.486.486,0,0,0,.486.486h7.777a.486.486,0,0,0,.486-.486V23.486A.486.486,0,0,0,31.263,23Zm-.486,7.777h-6.8v-6.8h6.8Z" transform="translate(-11.375 -11.375)" fill="#fff"/>
    <path id="Path_3081" data-name="Path 3081" d="M31.263,1H23.486A.486.486,0,0,0,23,1.486V9.263a.486.486,0,0,0,.486.486h7.777a.486.486,0,0,0,.486-.486V1.486A.486.486,0,0,0,31.263,1Zm-.486,7.777h-6.8v-6.8h6.8Z" transform="translate(-11.375)" fill="#fff"/>
    <path id="Path_3082" data-name="Path 3082" d="M31.263,45H23.486a.486.486,0,0,0-.486.486v7.777a.486.486,0,0,0,.486.486h7.777a.486.486,0,0,0,.486-.486V45.486A.486.486,0,0,0,31.263,45Zm-.486,7.777h-6.8v-6.8h6.8Z" transform="translate(-11.375 -22.749)" fill="#fff"/>
    <path id="Path_3083" data-name="Path 3083" d="M9.263,23H1.486A.486.486,0,0,0,1,23.486v7.777a.486.486,0,0,0,.486.486H9.263a.486.486,0,0,0,.486-.486V23.486A.486.486,0,0,0,9.263,23Zm-.486,7.777h-6.8v-6.8h6.8Z" transform="translate(0 -11.375)" fill="#fff"/>
    <path id="Path_3084" data-name="Path 3084" d="M9.263,1H1.486A.486.486,0,0,0,1,1.486V9.263a.486.486,0,0,0,.486.486H9.263a.486.486,0,0,0,.486-.486V1.486A.486.486,0,0,0,9.263,1ZM8.777,8.777h-6.8v-6.8h6.8Z" fill="#fff"/>
    <path id="Path_3085" data-name="Path 3085" d="M9.263,45H1.486A.486.486,0,0,0,1,45.486v7.777a.486.486,0,0,0,.486.486H9.263a.486.486,0,0,0,.486-.486V45.486A.486.486,0,0,0,9.263,45Zm-.486,7.777h-6.8v-6.8h6.8Z" transform="translate(0 -22.749)" fill="#fff"/>
    <path id="Path_3086" data-name="Path 3086" d="M53.263,23H45.486a.486.486,0,0,0-.486.486v7.777a.486.486,0,0,0,.486.486h7.777a.486.486,0,0,0,.486-.486V23.486A.486.486,0,0,0,53.263,23Zm-.486,7.777h-6.8v-6.8h6.8Z" transform="translate(-22.749 -11.375)" fill="#fff"/>
    <path id="Path_3087" data-name="Path 3087" d="M53.263,1H45.486A.486.486,0,0,0,45,1.486V9.263a.486.486,0,0,0,.486.486h7.777a.486.486,0,0,0,.486-.486V1.486A.486.486,0,0,0,53.263,1Zm-.486,7.777h-6.8v-6.8h6.8Z" transform="translate(-22.749)" fill="#fff"/>
    <path id="Path_3088" data-name="Path 3088" d="M53.263,45H45.486a.486.486,0,0,0-.486.486v7.777a.486.486,0,0,0,.486.486h7.777a.486.486,0,0,0,.486-.486V45.486A.486.486,0,0,0,53.263,45Zm-.486,7.777h-6.8v-6.8h6.8Z" transform="translate(-22.749 -22.749)" fill="#fff"/>
    <path id="Path_3089" data-name="Path 3089" d="M4.486,4.972h2.43a.486.486,0,0,0,0-.972H4.486a.486.486,0,0,0,0,.972Z" transform="translate(-1.542 -1.542)" fill="#fff"/>
    <path id="Path_3090" data-name="Path 3090" d="M12.486,4.972h.486a.486.486,0,1,0,0-.972h-.486a.486.486,0,1,0,0,.972Z" transform="translate(-5.679 -1.542)" fill="#fff"/>
  </g>
</svg>
