<svg xmlns="http://www.w3.org/2000/svg" width="27" height="30" viewBox="0 0 27 30">
  <g id="ai3" transform="translate(-29.928)">
    <g id="Group_1490" data-name="Group 1490" transform="translate(38.525 5.917)">
      <g id="Group_1489" data-name="Group 1489" transform="translate(0)">
        <path id="Path_3102" data-name="Path 3102" d="M185.288,106.267a.609.609,0,0,0-.492-.414l-2.65-.384-1.186-2.4a.609.609,0,0,0-.546-.339h0a.609.609,0,0,0-.546.34l-1.184,2.4-2.65.386a.609.609,0,0,0-.337,1.039l1.918,1.869-.452,2.639a.609.609,0,0,0,.884.642l2.37-1.247,2.371,1.245a.609.609,0,0,0,.884-.642l-.453-2.639,1.917-1.87A.609.609,0,0,0,185.288,106.267Zm-3.151,1.846a.609.609,0,0,0-.175.539l.3,1.738-1.561-.82a.609.609,0,0,0-.567,0l-1.561.821.3-1.738a.609.609,0,0,0-.175-.539l-1.263-1.231,1.745-.254a.609.609,0,0,0,.459-.333l.78-1.582.781,1.581a.609.609,0,0,0,.459.333l1.745.253Z" transform="translate(-175.512 -102.728)" fill="#fff"/>
      </g>
    </g>
    <g id="Group_1492" data-name="Group 1492" transform="translate(29.928 0)">
      <g id="Group_1491" data-name="Group 1491" transform="translate(0 0)">
        <path id="Path_3103" data-name="Path 3103" d="M56.848,25.744,51.912,17.32A10.489,10.489,0,0,0,54.3,10.664a10.87,10.87,0,0,0-21.737,0,10.489,10.489,0,0,0,2.384,6.656l-4.936,8.424a.577.577,0,0,0,.022.619.6.6,0,0,0,.575.254l3.852-.508,1.478,3.527a.6.6,0,0,0,.512.362h.04A.6.6,0,0,0,37,29.707l4.983-8.468,0,0a11.1,11.1,0,0,0,2.877,0l0,0,4.983,8.468a.6.6,0,0,0,.517.293h.04a.6.6,0,0,0,.512-.362L52.4,26.11l3.852.508a.6.6,0,0,0,.575-.254A.577.577,0,0,0,56.848,25.744ZM36.577,28.089,35.5,25.521l.966-1.546a.58.58,0,0,0-.2-.806.6.6,0,0,0-.821.193l-.976,1.562-2.826.372,4.137-7.06A10.922,10.922,0,0,0,40.748,21Zm6.85-7.932a9.6,9.6,0,0,1-9.674-9.492,9.676,9.676,0,0,1,19.348,0A9.6,9.6,0,0,1,43.428,20.156Zm8.955,4.769-.976-1.562a.6.6,0,0,0-.821-.193.58.58,0,0,0-.2.806l.966,1.546-1.076,2.568L46.107,21a10.921,10.921,0,0,0,4.965-2.763l4.137,7.06Z" transform="translate(-29.928 0)" fill="#fff"/>
      </g>
    </g>
    <g id="Group_1494" data-name="Group 1494" transform="translate(39.173 3.168)">
      <g id="Group_1493" data-name="Group 1493" transform="translate(0)">
        <path id="Path_3104" data-name="Path 3104" d="M191.417,52a7.923,7.923,0,0,0-3.879,1.013.609.609,0,0,0,.6,1.062,6.7,6.7,0,0,1,9.332,8.727.609.609,0,1,0,1.1.525,7.849,7.849,0,0,0,.769-3.408A7.928,7.928,0,0,0,191.417,52Z" transform="translate(-187.227 -52)" fill="#fff"/>
      </g>
    </g>
    <g id="Group_1496" data-name="Group 1496" transform="translate(47.94 14.952)">
      <g id="Group_1495" data-name="Group 1495">
        <path id="Path_3105" data-name="Path 3105" d="M332.891,255.77a.609.609,0,0,0-.861.013l-.014.014a.609.609,0,1,0,.872.851l.016-.016A.609.609,0,0,0,332.891,255.77Z" transform="translate(-331.843 -255.598)" fill="#fff"/>
      </g>
    </g>
    <g id="Group_1498" data-name="Group 1498" transform="translate(35.575 6.999)">
      <g id="Group_1497" data-name="Group 1497" transform="translate(0)">
        <path id="Path_3106" data-name="Path 3106" d="M137.972,132.055a.609.609,0,0,0-.828-.24,6.7,6.7,0,0,1-9.33-8.648.609.609,0,1,0-1.109-.505,7.922,7.922,0,0,0,11.027,10.22A.609.609,0,0,0,137.972,132.055Z" transform="translate(-125.996 -122.306)" fill="#fff"/>
      </g>
    </g>
    <g id="Group_1500" data-name="Group 1500" transform="translate(37.567 5.278)">
      <g id="Group_1499" data-name="Group 1499" transform="translate(0)">
        <path id="Path_3107" data-name="Path 3107" d="M159.021,90.38a.609.609,0,0,0-.861.031l-.014.015a.609.609,0,1,0,.894.827l.011-.012A.609.609,0,0,0,159.021,90.38Z" transform="translate(-157.984 -90.216)" fill="#fff"/>
      </g>
    </g>
  </g>
</svg>
