<svg id="ai4" xmlns="http://www.w3.org/2000/svg" width="35" height="30" viewBox="0 0 35 30">
  <path id="Path_3091" data-name="Path 3091" d="M119.384,188.632a.585.585,0,0,1-.38-.14l-3.8-3.234a.587.587,0,0,1,0-.894l3.8-3.234a.587.587,0,1,1,.761.894l-3.273,2.787,3.273,2.787a.587.587,0,0,1-.381,1.034Zm0,0" transform="translate(-105.531 -166.688)" fill="#fff"/>
  <path id="Path_3092" data-name="Path 3092" d="M250.295,188.632a.587.587,0,0,1-.381-1.034l3.273-2.787-3.273-2.787a.587.587,0,0,1,.761-.894l3.8,3.234a.587.587,0,0,1,0,.894l-3.8,3.234a.584.584,0,0,1-.38.14Zm0,0" transform="translate(-229.148 -166.688)" fill="#fff"/>
  <path id="Path_3093" data-name="Path 3093" d="M189.542,165.438a.6.6,0,0,1-.122-.013.587.587,0,0,1-.453-.7l2.367-11.239a.587.587,0,0,1,1.149.242l-2.367,11.239A.587.587,0,0,1,189.542,165.438Zm0,0" transform="translate(-173.384 -141.119)" fill="#fff"/>
  <path id="Path_3094" data-name="Path 3094" d="M31.12,30H3.88A3.83,3.83,0,0,1,0,26.231V3.769A3.83,3.83,0,0,1,3.88,0H31.12A3.83,3.83,0,0,1,35,3.769V26.231A3.83,3.83,0,0,1,31.12,30ZM3.88,1.123A2.689,2.689,0,0,0,1.156,3.769V26.231A2.689,2.689,0,0,0,3.88,28.877H31.12a2.689,2.689,0,0,0,2.724-2.646V3.769A2.689,2.689,0,0,0,31.12,1.123Zm0,0" fill="#fff"/>
  <path id="Path_3095" data-name="Path 3095" d="M34.422,99.264H.578a.587.587,0,0,1,0-1.174H34.422a.587.587,0,0,1,0,1.174Zm0,0" transform="translate(0 -90.238)" fill="#fff"/>
  <path id="Path_3096" data-name="Path 3096" d="M99.307,38a1.858,1.858,0,1,1,1.858-1.858A1.86,1.86,0,0,1,99.307,38Zm0-2.541a.684.684,0,1,0,.684.684A.684.684,0,0,0,99.307,35.463Zm0,0" transform="translate(-89.42 -31.414)" fill="#fff"/>
  <path id="Path_3097" data-name="Path 3097" d="M31.244,37.789A1.858,1.858,0,1,1,33.1,35.932,1.86,1.86,0,0,1,31.244,37.789Zm0-2.541a.684.684,0,1,0,.684.684A.685.685,0,0,0,31.244,35.248Zm0,0" transform="translate(-26.923 -31.217)" fill="#fff"/>
  <path id="Path_3098" data-name="Path 3098" d="M167.373,38.219a1.857,1.857,0,1,1,1.858-1.858A1.86,1.86,0,0,1,167.373,38.219Zm0-2.541a.684.684,0,1,0,.684.684A.684.684,0,0,0,167.373,35.678Zm0,0" transform="translate(-151.878 -31.611)" fill="#fff"/>
</svg>
