<svg xmlns="http://www.w3.org/2000/svg" width="32" height="30" viewBox="0 0 32 30">
  <g id="ai5" transform="translate(0 -9.155)">
    <g id="Group_1488" data-name="Group 1488" transform="translate(0 9.155)">
      <path id="Path_3099" data-name="Path 3099" d="M38.217,11.79a1.161,1.161,0,0,0-1.379.894l-.844,3.945a15.1,15.1,0,0,0-28.126,7.65,1.162,1.162,0,1,0,2.323,0,12.774,12.774,0,0,1,23.827-6.427l-3.872-.831a1.163,1.163,0,0,0-.487,2.275l6.647,1.427a1.162,1.162,0,0,0,1.379-.894l1.425-6.658A1.164,1.164,0,0,0,38.217,11.79Z" transform="translate(-7.136 -9.155)" fill="#fff"/>
      <path id="Path_3100" data-name="Path 3100" d="M29.912,155.264a1.163,1.163,0,0,0-1.123,1.2,12.788,12.788,0,0,1-12.348,13.212c-.142,0-.284.007-.425.007a12.77,12.77,0,0,1-10.866-6.066L9.188,164.7a1.163,1.163,0,0,0,.6-2.248l-6.566-1.763a1.161,1.161,0,0,0-1.423.822L.04,168.091a1.162,1.162,0,1,0,2.244.6l.989-3.7a15.087,15.087,0,0,0,12.742,7.014c.167,0,.335,0,.5-.008a15.113,15.113,0,0,0,14.593-15.615A1.161,1.161,0,0,0,29.912,155.264Z" transform="translate(0 -142.011)" fill="#fff"/>
    </g>
  </g>
</svg>
