<svg xmlns="http://www.w3.org/2000/svg" width="29" height="30" viewBox="0 0 29 30">
  <g id="ai6" transform="translate(-14.15)">
    <path id="Path_3101" data-name="Path 3101" d="M39.2,11.408V10.254a10.377,10.377,0,0,0-2.824-7.229A9.871,9.871,0,0,0,29.146,0h-.978a9.871,9.871,0,0,0-7.229,3.025,10.377,10.377,0,0,0-2.824,7.229v1.153a4.189,4.189,0,0,0-3.964,4.122v1.8a4.193,4.193,0,0,0,4.243,4.128h2.39a.769.769,0,0,0,.777-.756V12.151a.769.769,0,0,0-.777-.756H19.669V10.254a8.431,8.431,0,0,1,8.492-8.742h.978a8.427,8.427,0,0,1,8.492,8.742v1.141H36.517a.769.769,0,0,0-.777.756V20.7a.769.769,0,0,0,.777.756h1.088a5.1,5.1,0,0,1-4.4,5.067,2.727,2.727,0,0,0-2.6-1.834H28.66a2.657,2.657,0,1,0,0,5.313h1.95a2.723,2.723,0,0,0,2.63-1.954,7.494,7.494,0,0,0,2.636-.876,6.651,6.651,0,0,0,3.291-5.723,4.183,4.183,0,0,0,3.984-4.122v-1.8A4.167,4.167,0,0,0,39.2,11.408Zm-19.18,8.534H18.406a2.654,2.654,0,0,1-2.688-2.616v-1.8a2.654,2.654,0,0,1,2.688-2.616h1.613Zm10.591,8.546H28.66a1.141,1.141,0,1,1,0-2.282h1.95a1.141,1.141,0,1,1,0,2.282ZM41.6,17.326a2.654,2.654,0,0,1-2.688,2.616H37.3V12.908h1.613A2.654,2.654,0,0,1,41.6,15.523Z" transform="translate(0 0)" fill="#fff"/>
  </g>
</svg>
